<svg width="507" height="186" viewBox="0 0 507 186" fill="none" xmlns="http://www.w3.org/2000/svg">
<path d="M273.271 5.96912C268.933 9.67855 266.126 12.8934 267.146 13.1407C268.422 13.388 266.381 14.1299 262.808 15.119C256.939 16.6028 255.663 20.0649 244.434 66.0618C237.799 93.2643 232.184 116.263 232.184 117.252C232.184 118.488 242.903 119.23 256.173 119.23C277.865 119.23 280.162 118.736 281.438 114.284C282.714 109.586 281.438 109.338 265.105 109.338C244.944 109.338 245.199 110.08 251.579 85.8455L255.663 69.7713H265.615C272.761 69.7713 276.078 68.5348 278.12 65.0727C281.948 57.9011 281.693 57.4065 269.443 57.4065H258.215L262.043 42.5688C265.87 27.9784 266.126 27.7311 275.313 27.4838C292.666 27.2365 304.916 24.269 305.681 19.5704C306.192 16.6028 304.916 15.3663 301.343 15.3663C298.281 15.3663 296.239 14.6244 296.494 13.388C296.749 12.3988 296.239 9.18396 295.218 6.46371C292.156 -1.94433 282.714 -2.19162 273.271 5.96912ZM286.541 12.1515C287.307 13.388 283.734 14.3772 278.63 14.6244C271.995 14.8717 270.464 14.3772 273.016 12.8934C277.61 9.92584 285.01 9.67855 286.541 12.1515Z" fill="white"/>
<path d="M87.4875 18.0866C83.6595 19.3231 80.5971 28.473 71.41 65.0727C65.2853 90.0495 59.9261 112.553 59.1605 114.779C58.3949 117.994 59.6709 119.23 64.0093 119.23C69.6236 119.23 70.6444 117.005 76.514 94.9954L83.1491 71.0077L101.268 70.2659L119.642 69.524L122.194 60.3741C131.892 24.7635 132.402 21.796 129.85 18.8285C127.043 15.3663 96.4194 14.8717 87.4875 18.0866ZM120.408 26.4946C121.174 27.2365 119.898 35.3972 117.601 44.5472L113.262 61.1159L98.7161 61.8578C89.0186 62.3524 84.1699 61.6105 84.1699 59.8795C84.1699 58.1484 86.2115 49.7404 88.5082 41.085L92.8466 25.2581H105.862C113.262 25.2581 119.642 25.7527 120.408 26.4946Z" fill="white"/>
<path d="M143.631 19.8176C138.272 24.7635 116.07 109.833 118.366 115.521C119.387 118.488 124.236 119.23 139.548 119.23C150.521 119.23 160.984 118.241 163.026 117.005C166.088 115.026 188.801 32.4297 188.801 22.5379C188.801 16.8501 183.697 15.3663 164.302 15.3663C152.052 15.3663 146.948 16.3555 143.631 19.8176ZM168.385 65.8145C163.026 86.8346 157.922 105.134 156.901 106.618C155.37 109.338 132.147 110.575 129.595 108.102C128.829 107.36 132.913 88.813 138.527 67.2983L148.48 27.7311H163.281H177.827L168.385 65.8145Z" fill="white"/>
<path d="M199.009 17.592C199.009 18.8285 198.243 21.5487 197.478 23.7744C196.202 26.9892 197.733 27.7311 205.133 27.7311C210.237 27.7311 214.321 28.7203 214.321 29.9567C214.321 31.1932 209.727 50.9768 204.113 73.9753C198.498 96.7264 193.905 116.51 193.905 117.499C193.905 118.736 196.457 119.23 199.519 118.736C204.878 117.994 206.409 113.79 216.617 72.9861L227.846 27.9784L238.309 27.2365C246.986 26.7419 249.027 25.5054 249.538 20.8068C250.303 15.3663 249.793 15.3663 224.784 15.3663C210.493 15.3663 199.009 16.3555 199.009 17.592Z" fill="white"/>
<path d="M313.082 17.0974C311.551 19.5704 288.328 113.543 288.328 117.005C288.328 118.488 290.88 119.23 293.942 118.736C299.046 117.994 300.577 114.037 308.488 82.136L317.165 46.2782L323.8 82.136C329.925 114.779 330.946 117.994 336.05 118.736C339.623 119.23 341.919 117.994 342.94 115.026C344.471 109.833 364.887 18.3339 364.887 16.6028C364.887 15.8609 362.59 15.3663 359.783 15.3663C353.403 15.3663 352.127 18.3339 344.471 54.1917C340.899 69.524 337.581 81.1468 336.56 80.1577C335.795 79.1685 333.498 69.524 331.711 58.643C326.097 22.0433 324.056 15.3663 318.952 15.3663C316.4 15.3663 313.592 16.1082 313.082 17.0974Z" fill="white"/>
<path d="M375.095 19.0758C373.564 21.0541 366.929 42.8161 360.804 67.5456C352.638 100.93 350.341 113.543 352.638 116.015C355.955 119.972 388.365 120.467 395.256 116.757C397.808 115.521 400.87 110.328 401.636 105.629C402.656 100.683 404.188 94.9954 404.953 93.017C405.719 90.7914 404.443 89.5549 400.87 89.5549C397.297 89.5549 395 91.5333 393.98 96.2319C392.959 100.189 391.172 104.64 389.641 106.371C386.579 110.328 364.887 109.586 363.101 105.629C362.59 103.898 366.418 85.5982 372.033 64.5781L381.73 26.4946L396.532 25.7527L411.333 25.0109L409.547 32.4297C408.016 38.8594 408.526 40.0959 412.864 40.0959C418.989 40.0959 424.859 22.5379 420.265 18.0866C415.927 13.8826 378.923 14.6245 375.095 19.0758Z" fill="white"/>
<path d="M438.894 16.6028C438.894 17.3447 433.79 39.1067 427.41 65.0727C421.031 91.0386 415.927 113.79 415.927 115.768C415.927 117.747 418.223 119.23 421.031 119.23C424.603 119.23 426.645 116.757 428.686 109.833C431.494 100.436 451.654 18.0866 451.654 16.3555C451.654 15.8609 448.847 15.3663 445.274 15.3663C441.701 15.3663 438.894 15.8609 438.894 16.6028Z" fill="white"/>
<path d="M465.945 19.5703C463.138 28.7203 443.998 110.328 443.998 113.295C443.998 115.274 446.295 116.757 449.102 116.757C451.909 116.757 454.206 115.026 454.206 113.048C454.206 109.091 468.497 49.2458 471.304 42.5688C472.836 38.3648 475.898 47.0201 486.106 86.5873C491.975 109.338 494.017 114.284 498.1 114.284C503.97 114.284 503.97 112.059 497.59 90.7913C494.783 81.1468 490.699 66.3091 488.658 57.4065C480.492 23.5271 477.174 15.3663 472.07 15.3663C469.518 15.3663 466.711 17.3447 465.945 19.5703Z" fill="#FF0000"/>
<path d="M61.2021 19.0758C61.2021 19.8176 56.6086 40.3431 50.739 64.8254C45.1247 89.5549 41.0415 111.07 41.8071 113.048C42.5727 115.026 45.3799 116.757 47.9318 116.757C51.7598 116.757 54.0566 109.833 63.2437 70.2659C69.1132 44.7944 73.962 22.5379 73.962 20.8068C73.962 19.323 71.1548 17.8393 67.5821 17.8393C64.0093 17.8393 61.2021 18.3339 61.2021 19.0758Z" fill="white"/>
<path d="M39.5103 28.2257C38.7447 29.9568 34.4064 48.0093 29.8128 68.5348C22.6673 99.4467 21.6465 105.876 24.7089 107.607C26.7505 108.844 29.5576 109.339 31.0888 108.844C34.4064 107.607 53.8014 30.4513 51.7598 26.9892C49.9734 24.0217 40.7863 25.0108 39.5103 28.2257Z" fill="white"/>
<path d="M15.5218 46.7728C6.07946 83.3725 6.07946 89.5549 14.7562 89.5549C18.5841 89.5549 20.3705 85.3509 24.9641 66.3091C31.8544 37.3756 31.8544 37.6229 24.1985 37.6229C19.0945 37.6229 17.5633 39.354 15.5218 46.7728Z" fill="white"/>
<path d="M1.74111 54.1917C-1.06607 56.6646 -0.300475 64.3308 2.76189 66.3091C6.07946 68.2875 10.1626 63.0943 10.1626 56.6646C10.1626 52.4606 5.05867 50.9768 1.74111 54.1917Z" fill="white"/>
<path d="M229.632 146.433C229.632 161.27 230.653 171.162 232.184 171.162C233.716 171.162 234.736 161.27 234.736 146.433C234.736 131.595 233.716 121.703 232.184 121.703C230.653 121.703 229.632 131.595 229.632 146.433Z" fill="white"/>
<path d="M417.968 132.584C415.927 141.981 420.265 169.184 424.093 171.41C429.452 174.872 436.342 173.883 436.342 169.926C436.342 167.947 434.046 166.216 431.238 166.216C426.9 166.216 426.134 164.485 426.134 153.852C426.134 143.218 426.9 141.487 431.238 141.487C434.046 141.487 436.342 140.25 436.342 139.014C436.342 137.53 434.046 136.541 431.238 136.541C427.921 136.541 426.134 134.81 426.134 131.595C426.134 124.671 419.244 125.413 417.968 132.584Z" fill="white"/>
<path d="M205.899 135.552C204.878 136.541 200.795 137.283 196.457 137.036L188.801 136.788V161.518C188.801 181.549 189.566 186 192.629 186C195.181 186 196.457 183.527 196.457 178.334C196.457 171.904 197.222 171.162 201.561 172.399C204.878 173.388 209.472 172.399 213.3 169.926C218.914 166.464 219.68 164.485 218.914 153.357C218.404 143.96 216.873 140.003 212.789 137.53C209.982 135.552 206.92 134.81 205.899 135.552ZM211.258 144.454C213.045 146.185 214.321 150.389 214.321 153.852C214.321 161.765 209.982 166.216 202.326 166.216C197.222 166.216 196.457 164.98 196.457 155.583C196.457 149.648 197.222 143.96 198.243 143.218C200.795 140.498 207.941 141.24 211.258 144.454Z" fill="white"/>
<path d="M253.621 136.541C241.116 141.24 240.606 164.98 252.855 171.162C259.746 174.872 275.568 172.151 275.568 167.453C275.568 163.002 275.313 163.002 267.147 165.969C260.001 168.689 250.048 163.496 250.048 157.314C250.048 154.841 253.366 153.852 262.808 153.852C273.526 153.852 275.568 153.11 275.568 149.4C275.568 139.261 263.829 132.584 253.621 136.541ZM267.402 146.927C268.167 150.637 266.381 151.379 259.235 151.379C249.538 151.379 248.007 149.4 253.111 144.454C257.449 140.25 266.381 141.734 267.402 146.927Z" fill="white"/>
<path d="M296.239 136.294C294.453 137.53 290.625 137.777 288.073 137.283C283.734 136.046 283.224 137.53 283.224 153.604C283.224 167.206 283.989 171.162 287.052 171.162C289.604 171.162 290.88 167.453 291.39 156.819C292.156 144.702 292.921 142.723 297.26 142.723C301.598 142.723 302.364 144.702 303.129 156.819C303.64 167.206 304.916 171.162 307.468 171.162C310.02 171.162 311.296 167.206 311.806 157.066C312.316 145.444 313.337 142.723 317.42 141.981C324.055 140.745 326.607 145.691 326.607 159.292C326.607 165.969 327.883 171.162 329.159 171.162C331.967 171.162 332.477 144.207 329.67 140.003C326.352 135.304 319.717 134.315 314.868 137.777C311.04 140.25 309.254 140.25 304.916 137.53C301.853 135.552 298.281 135.057 296.239 136.294Z" fill="white"/>
<path d="M349.32 137.53C336.305 143.713 336.815 163.743 349.83 170.915C357.486 175.119 369.991 172.893 369.991 167.453C369.991 164.733 368.715 164.485 363.356 166.216C355.19 169.184 347.023 165.474 347.023 158.798C347.023 154.594 348.81 153.852 359.783 153.852C373.564 153.852 375.35 151.379 368.715 142.229C363.866 135.799 356.721 133.821 349.32 137.53ZM364.377 146.927C365.142 150.637 363.356 151.379 356.21 151.379C347.534 151.379 344.216 147.669 348.81 142.971C352.127 139.756 363.611 142.723 364.377 146.927Z" fill="white"/>
<path d="M392.704 136.788C390.662 138.025 387.089 138.272 384.793 137.53C380.709 136.294 380.199 138.272 380.199 153.604C380.199 163.743 381.22 171.162 382.751 171.162C384.282 171.162 385.303 165.722 385.303 159.292C385.303 146.927 388.365 141.487 395.766 141.487C401.125 141.487 403.167 146.433 403.167 160.281C403.167 166.216 404.443 171.162 405.719 171.162C407.505 171.162 408.271 164.98 407.76 154.841C406.995 140.745 406.229 138.025 401.636 136.541C398.828 135.304 394.745 135.552 392.704 136.788Z" fill="white"/>
<path d="M450.378 137.036C442.978 140.992 441.446 143.96 441.446 154.346C441.446 174.13 462.628 181.054 471.815 164.485C480.492 148.411 465.18 128.875 450.378 137.036ZM465.435 145.444C468.752 153.852 466.966 163.496 461.607 166.216C452.165 171.162 444.254 160.034 448.847 147.917C451.909 140.498 462.883 138.767 465.435 145.444Z" fill="white"/>
<path d="M117.346 141.487C113.518 148.411 117.856 155.335 127.553 157.066C135.72 158.798 138.017 164.733 131.126 167.206C129.085 167.947 125.001 167.453 122.45 166.216C116.07 163.002 114.794 163.002 114.794 167.206C114.794 172.893 129.34 174.624 136.485 170.173C146.438 163.991 144.652 156.572 132.657 152.121C120.663 147.422 120.663 142.723 132.147 142.723C136.996 142.723 140.313 141.487 140.313 139.756C140.313 137.777 136.741 136.541 130.105 136.541C122.705 136.541 119.387 137.777 117.346 141.487Z" fill="white"/>
<path d="M150.521 152.368C150.521 171.41 153.328 174.377 168.13 172.151L178.593 170.42V153.604C178.593 133.821 173.999 130.359 172.979 149.153C172.213 162.754 167.619 168.442 159.708 165.474C156.646 164.238 155.625 160.529 155.625 150.142C155.625 142.723 154.604 136.541 153.073 136.541C151.542 136.541 150.521 143.465 150.521 152.368Z" fill="white"/>
<path d="M482.278 140.25C477.174 146.185 482.788 155.335 492.231 157.066C500.397 158.798 502.949 164.733 496.314 167.206C494.272 167.947 489.679 167.453 486.106 166.216C481.257 164.485 479.726 164.733 479.726 167.206C479.726 171.41 490.955 174.377 497.845 172.399C503.97 170.42 508.308 163.002 506.266 157.808C505.501 155.83 500.907 152.862 496.059 151.379C484.064 147.422 484.319 140.498 496.314 141.981C502.438 142.723 505.246 141.981 505.246 139.756C505.246 135.057 486.361 135.552 482.278 140.25Z" fill="white"/>
</svg>
